<svg xmlns="http://www.w3.org/2000/svg" fill="none" viewBox="0 0 128 128">
  <path d="M60.812 61.069l-3.894-15.968c-1.237-5.111-2.222-10.628-2.954-16.553l-.135-1.079-.109 1.03c-.602 5.892-1.538 11.426-2.808 16.602L43.637 74.74H21.322L2.035 1.986h22.071l5.81 28.222c.749 3.548 1.416 7.43 2.002 11.646l1.628 11.847 1.815-11.847c.667-4.216 1.407-8.098 2.221-11.646l6.446-28.222h19.726l6.445 28.222c.814 3.548 1.555 7.43 2.222 11.646l1.587 10.316H60.812v8.899zm13.6-8.899l1.427-10.316c.602-4.216 1.261-8.098 1.978-11.646l5.859-28.222h22.07L92.421 52.25c-.99-.054-1.998-.08-3.025-.08H74.412z"/>
  <path d="M89.822 126.039H69.9v-16.797h19.141c3.613 0 6.697-.57 9.253-1.709s4.5-3.133 5.835-5.982 2.002-6.795 2.002-11.841c0-5.078-.684-9.041-2.051-11.889s-3.361-4.851-5.982-6.006-5.835-1.734-9.643-1.734H69.607V53.285h19.922c7.487 0 13.949 1.456 19.385 4.37s9.635 7.088 12.598 12.524 4.443 11.947 4.443 19.531c0 7.552-1.473 14.047-4.419 19.483s-7.121 9.603-12.524 12.5-11.801 4.346-19.19 4.346zm-8.301-72.754v72.754H61.795V53.285h19.726z" />
  <style>
    path { fill: #000; }
    @media (prefers-color-scheme: dark) {
      path { fill: #FFF; }
    }
  </style>
</svg>
