<svg xmlns="http://www.w3.org/2000/svg" width="1000" height="1000" xmlns:v="https://vecta.io/nano"><style><![CDATA[.B{shape-rendering:crispEdges}.C{fill-rule:evenodd}]]></style><g transform="matrix(1 0 0 1 0 0)"><svg width="1000" height="1000" viewBox="0 0 820 820"><path fill="#fff" d="M0 0h820v820H0z"/><path d="M340 80h20v20h-20z" class="B"/><path d="M360 80h20v20h-20zm60 0h20v20h-20z" class="B"/><path d="M440 80h20v20h-20zm40 0h20v20h-20z" class="B"/><path d="M500 80h20v20h-20z" class="B"/><path d="M520 80h20v20h-20z" class="B"/><path d="M540 80h20v20h-20z" class="B"/><path d="M560 80h20v20h-20zm-280 20h20v20h-20zm60 0h20v20h-20z" class="B"/><path d="M360 100h20v20h-20z" class="B"/><path d="M380 100h20v20h-20zm40 0h20v20h-20zm60 0h20v20h-20zm60 0h20v20h-20z" class="B"/><path d="M560 100h20v20h-20zm-320 20h20v20h-20zm100 0h20v20h-20zm60 0h20v20h-20z" class="B"/><path d="M420 120h20v20h-20z" class="B"/><path d="M440 120h20v20h-20z" class="B"/><path d="M460 120h20v20h-20z" class="B"/><path d="M480 120h20v20h-20zm60 0h20v20h-20zm-300 20h20v20h-20z" class="B"/><path d="M260 140h20v20h-20zm40 0h20v20h-20z" class="B"/><path d="M320 140h20v20h-20zm40 0h20v20h-20z" class="B"/><path d="M380 140h20v20h-20z" class="B"/><path d="M400 140h20v20h-20zm80 0h20v20h-20zm40 0h20v20h-20zm-280 20h20v20h-20zm40 0h20v20h-20z" class="B"/><path d="M380 160h20v20h-20zm60 0h20v20h-20zm60 0h20v20h-20z" class="B"/><path d="M520 160h20v20h-20zm-280 20h20v20h-20z" class="B"/><path d="M260 180h20v20h-20zm80 0h20v20h-20z" class="B"/><path d="M360 180h20v20h-20z" class="B"/><path d="M380 180h20v20h-20z" class="B"/><path d="M400 180h20v20h-20z" class="B"/><path d="M420 180h20v20h-20zm60 0h20v20h-20zm80 0h20v20h-20zm-320 20h20v20h-20zm40 0h20v20h-20zm40 0h20v20h-20zm40 0h20v20h-20z" class="B"/><path d="M400 200h20v20h-20zm40 0h20v20h-20zm40 0h20v20h-20zm40 0h20v20h-20zm40 0h20v20h-20zm-320 20h20v20h-20z" class="B"/><path d="M260 220h20v20h-20z" class="B"/><path d="M280 220h20v20h-20z" class="B"/><path d="M300 220h20v20h-20zm60 0h20v20h-20z" class="B"/><path d="M380 220h20v20h-20zm40 0h20v20h-20z" class="B"/><path d="M440 220h20v20h-20zm60 0h20v20h-20z" class="B"/><path d="M520 220h20v20h-20z" class="B"/><path d="M540 220h20v20h-20z" class="B"/><use href="#B" class="B"/><path d="M120 240h20v20h-20z" class="B"/><path d="M140 240h20v20h-20z" class="B"/><path d="M160 240h20v20h-20z" class="B"/><path d="M180 240h20v20h-20z" class="B"/><path d="M200 240h20v20h-20zm120 0h20v20h-20zm40 0h20v20h-20z" class="B"/><path d="M380 240h20v20h-20z" class="B"/><path d="M400 240h20v20h-20zm40 0h20v20h-20zm40 0h20v20h-20z" class="B"/><path d="M500 240h20v20h-20zm100 0h20v20h-20z" class="B"/><path d="M620 240h20v20h-20z" class="B"/><path d="M640 240h20v20h-20z" class="B"/><path d="M660 240h20v20h-20z" class="B"/><path d="M680 240h20v20h-20zm-560 20h20v20h-20z" class="B"/><path d="M140 260h20v20h-20z" class="B"/><path d="M160 260h20v20h-20z" class="B"/><path d="M180 260h20v20h-20zm60 0h20v20h-20zm120 0h20v20h-20zm40 0h20v20h-20zm40 0h20v20h-20zm60 0h20v20h-20z" class="B"/><path d="M520 260h20v20h-20z" class="B"/><path d="M540 260h20v20h-20z" class="B"/><path d="M560 260h20v20h-20zm40 0h20v20h-20z" class="B"/><path d="M620 260h20v20h-20z" class="B"/><path d="M640 260h20v20h-20z" class="B"/><path d="M660 260h20v20h-20z" class="B"/><path d="M680 260h20v20h-20z" class="B"/><path d="M700 260h20v20h-20z" class="B"/><use href="#B" y="40" class="B"/><path d="M100 280h20v20h-20z" class="B"/><path d="M120 280h20v20h-20z" class="B"/><path d="M140 280h20v20h-20z" class="B"/><path d="M160 280h20v20h-20z" class="B"/><path d="M180 280h20v20h-20z" class="B"/><path d="M200 280h20v20h-20zm80 0h20v20h-20z" class="B"/><path d="M300 280h20v20h-20zm140 0h20v20h-20z" class="B"/><path d="M460 280h20v20h-20zm40 0h20v20h-20zm140 0h20v20h-20zm80 0h20v20h-20zm-580 20h20v20h-20z" class="B"/><path d="M160 300h20v20h-20zm80 0h20v20h-20zm60 0h20v20h-20z" class="B"/><path d="M320 300h20v20h-20zm40 0h20v20h-20zm100 0h20v20h-20z" class="B"/><path d="M480 300h20v20h-20z" class="B"/><path d="M500 300h20v20h-20zm40 0h20v20h-20zm60 0h20v20h-20z" class="B"/><path d="M620 300h20v20h-20zm100 0h20v20h-20z" class="B"/><use href="#B" y="80" class="B"/><path d="M160 320h20v20h-20z" class="B"/><path d="M180 320h20v20h-20z" class="B"/><path d="M200 320h20v20h-20zm60 0h20v20h-20zm120 0h20v20h-20zm60 0h20v20h-20zm60 0h20v20h-20zm80 0h20v20h-20z" class="B"/><path d="M600 320h20v20h-20zm80 0h20v20h-20z" class="B"/><path d="M700 320h20v20h-20zm-600 20h20v20h-20zm60 0h20v20h-20zm60 0h20v20h-20zm40 0h20v20h-20zm60 0h20v20h-20z" class="B"/><path d="M340 340h20v20h-20z" class="B"/><path d="M360 340h20v20h-20z" class="B"/><path d="M380 340h20v20h-20z" class="B"/><path d="M400 340h20v20h-20zm80 0h20v20h-20z" class="B"/><path d="M500 340h20v20h-20zm60 0h20v20h-20z" class="B"/><path d="M580 340h20v20h-20zm60 0h20v20h-20z" class="B"/><path d="M660 340h20v20h-20z" class="B"/><path d="M680 340h20v20h-20z" class="B"/><use href="#B" y="120" class="B"/><path d="M140 360h20v20h-20zm40 0h20v20h-20z" class="B"/><path d="M200 360h20v20h-20zm40 0h20v20h-20zm40 0h20v20h-20zm80 0h20v20h-20zm60 0h20v20h-20zm40 0h20v20h-20zm100 0h20v20h-20zm60 0h20v20h-20z" class="B"/><path d="M640 360h20v20h-20zm60 0h20v20h-20z" class="B"/><path d="M720 360h20v20h-20z" class="B"/><use href="#B" y="140" class="B"/><path d="M120 380h20v20h-20zm40 0h20v20h-20zm120 0h20v20h-20z" class="B"/><path d="M300 380h20v20h-20zm100 0h20v20h-20zm60 0h20v20h-20z" class="B"/><path d="M480 380h20v20h-20zm40 0h20v20h-20z" class="B"/><path d="M540 380h20v20h-20zm60 0h20v20h-20zm80 0h20v20h-20zm40 0h20v20h-20z" class="B"/><use href="#B" y="160" class="B"/><path d="M120 400h20v20h-20zm40 0h20v20h-20z" class="B"/><path d="M180 400h20v20h-20z" class="B"/><path d="M200 400h20v20h-20z" class="B"/><path d="M220 400h20v20h-20zm80 0h20v20h-20zm40 0h20v20h-20z" class="B"/><path d="M360 400h20v20h-20zm40 0h20v20h-20zm60 0h20v20h-20z" class="B"/><path d="M480 400h20v20h-20z" class="B"/><path d="M500 400h20v20h-20zm80 0h20v20h-20z" class="B"/><path d="M600 400h20v20h-20zm40 0h20v20h-20z" class="B"/><path d="M660 400h20v20h-20z" class="B"/><use href="#B" y="180" class="B"/><path d="M120 420h20v20h-20z" class="B"/><path d="M140 420h20v20h-20z" class="B"/><path d="M160 420h20v20h-20zm60 0h20v20h-20zm40 0h20v20h-20z" class="B"/><path d="M280 420h20v20h-20zm60 0h20v20h-20zm60 0h20v20h-20z" class="B"/><path d="M420 420h20v20h-20zm40 0h20v20h-20z" class="B"/><path d="M480 420h20v20h-20zm40 0h20v20h-20zm40 0h20v20h-20z" class="B"/><path d="M580 420h20v20h-20z" class="B"/><path d="M600 420h20v20h-20z" class="B"/><path d="M620 420h20v20h-20zm40 0h20v20h-20z" class="B"/><path d="M680 420h20v20h-20zm40 0h20v20h-20zm-620 20h20v20h-20zm80 0h20v20h-20z" class="B"/><path d="M200 440h20v20h-20z" class="B"/><path d="M220 440h20v20h-20z" class="B"/><path d="M240 440h20v20h-20zm40 0h20v20h-20z" class="B"/><path d="M300 440h20v20h-20zm120 0h20v20h-20zm100 0h20v20h-20z" class="B"/><path d="M540 440h20v20h-20z" class="B"/><path d="M560 440h20v20h-20z" class="B"/><path d="M580 440h20v20h-20zm60 0h20v20h-20z" class="B"/><path d="M660 440h20v20h-20zm-560 20h20v20h-20z" class="B"/><path d="M120 460h20v20h-20zm100 0h20v20h-20zm100 0h20v20h-20zm40 0h20v20h-20zm40 0h20v20h-20z" class="B"/><path d="M420 460h20v20h-20z" class="B"/><path d="M440 460h20v20h-20z" class="B"/><path d="M460 460h20v20h-20z" class="B"/><path d="M480 460h20v20h-20zm60 0h20v20h-20zm40 0h20v20h-20z" class="B"/><path d="M600 460h20v20h-20zm60 0h20v20h-20z" class="B"/><path d="M680 460h20v20h-20z" class="B"/><path d="M700 460h20v20h-20z" class="B"/><path d="M720 460h20v20h-20zm-600 20h20v20h-20zm40 0h20v20h-20zm40 0h20v20h-20zm60 0h20v20h-20z" class="B"/><path d="M280 480h20v20h-20z" class="B"/><path d="M300 480h20v20h-20z" class="B"/><path d="M320 480h20v20h-20z" class="B"/><path d="M340 480h20v20h-20zm40 0h20v20h-20z" class="B"/><path d="M400 480h20v20h-20zm80 0h20v20h-20z" class="B"/><path d="M500 480h20v20h-20z" class="B"/><path d="M520 480h20v20h-20zm40 0h20v20h-20z" class="B"/><path d="M580 480h20v20h-20zm100 0h20v20h-20z" class="B"/><path d="M700 480h20v20h-20z" class="B"/><use href="#B" y="260" class="B"/><path d="M100 500h20v20h-20zm120 0h20v20h-20zm40 0h20v20h-20z" class="B"/><path d="M280 500h20v20h-20zm40 0h20v20h-20zm40 0h20v20h-20z" class="B"/><path d="M380 500h20v20h-20zm60 0h20v20h-20zm60 0h20v20h-20zm100 0h20v20h-20zm60 0h20v20h-20z" class="B"/><path d="M680 500h20v20h-20z" class="B"/><use href="#B" y="280" class="B"/><path d="M140 520h20v20h-20z" class="B"/><path d="M160 520h20v20h-20zm40 0h20v20h-20zm40 0h20v20h-20z" class="B"/><path d="M260 520h20v20h-20z" class="B"/><path d="M280 520h20v20h-20zm60 0h20v20h-20z" class="B"/><path d="M360 520h20v20h-20z" class="B"/><path d="M380 520h20v20h-20z" class="B"/><path d="M400 520h20v20h-20z" class="B"/><path d="M420 520h20v20h-20zm60 0h20v20h-20zm160 0h20v20h-20z" class="B"/><path d="M660 520h20v20h-20zm40 0h20v20h-20z" class="B"/><use href="#B" y="300" class="B"/><path d="M140 540h20v20h-20z" class="B"/><path d="M160 540h20v20h-20zm60 0h20v20h-20z" class="B"/><path d="M240 540h20v20h-20z" class="B"/><path d="M260 540h20v20h-20z" class="B"/><path d="M280 540h20v20h-20zm60 0h20v20h-20zm40 0h20v20h-20zm60 0h20v20h-20zm80 0h20v20h-20z" class="B"/><path d="M540 540h20v20h-20zm60 0h20v20h-20zm60 0h20v20h-20z" class="B"/><path d="M680 540h20v20h-20zm40 0h20v20h-20z" class="B"/><use href="#B" y="320" class="B"/><path d="M120 560h20v20h-20z" class="B"/><path d="M140 560h20v20h-20z" class="B"/><path d="M160 560h20v20h-20z" class="B"/><path d="M180 560h20v20h-20z" class="B"/><path d="M200 560h20v20h-20zm120 0h20v20h-20z" class="B"/><path d="M340 560h20v20h-20z" class="B"/><path d="M360 560h20v20h-20z" class="B"/><path d="M380 560h20v20h-20z" class="B"/><path d="M400 560h20v20h-20z" class="B"/><path d="M420 560h20v20h-20z" class="B"/><path d="M440 560h20v20h-20zm60 0h20v20h-20zm60 0h20v20h-20z" class="B"/><path d="M580 560h20v20h-20z" class="B"/><path d="M600 560h20v20h-20z" class="B"/><path d="M620 560h20v20h-20z" class="B"/><path d="M640 560h20v20h-20z" class="B"/><path d="M660 560h20v20h-20z" class="B"/><path d="M680 560h20v20h-20zm40 0h20v20h-20zm-480 20h20v20h-20zm40 0h20v20h-20zm100 0h20v20h-20zm60 0h20v20h-20z" class="B"/><path d="M460 580h20v20h-20z" class="B"/><path d="M480 580h20v20h-20z" class="B"/><path d="M500 580h20v20h-20z" class="B"/><path d="M520 580h20v20h-20zm40 0h20v20h-20zm80 0h20v20h-20z" class="B"/><path d="M660 580h20v20h-20z" class="B"/><path d="M680 580h20v20h-20zm40 0h20v20h-20zm-400 20h20v20h-20zm40 0h20v20h-20zm80 0h20v20h-20z" class="B"/><path d="M460 600h20v20h-20zm40 0h20v20h-20zm40 0h20v20h-20z" class="B"/><path d="M560 600h20v20h-20zm40 0h20v20h-20zm40 0h20v20h-20z" class="B"/><path d="M660 600h20v20h-20zm-420 20h20v20h-20z" class="B"/><path d="M260 620h20v20h-20z" class="B"/><path d="M280 620h20v20h-20zm80 0h20v20h-20zm40 0h20v20h-20zm60 0h20v20h-20zm40 0h20v20h-20z" class="B"/><path d="M520 620h20v20h-20zm40 0h20v20h-20zm80 0h20v20h-20z" class="B"/><path d="M660 620h20v20h-20z" class="B"/><path d="M680 620h20v20h-20z" class="B"/><path d="M700 620h20v20h-20z" class="B"/><path d="M720 620h20v20h-20zm-480 20h20v20h-20z" class="B"/><path d="M260 640h20v20h-20z" class="B"/><path d="M280 640h20v20h-20zm100 0h20v20h-20zm60 0h20v20h-20zm60 0h20v20h-20zm60 0h20v20h-20z" class="B"/><path d="M580 640h20v20h-20z" class="B"/><path d="M600 640h20v20h-20z" class="B"/><path d="M620 640h20v20h-20z" class="B"/><path d="M640 640h20v20h-20zm40 0h20v20h-20z" class="B"/><path d="M700 640h20v20h-20zm-460 20h20v20h-20zm40 0h20v20h-20z" class="B"/><path d="M300 660h20v20h-20zm40 0h20v20h-20zm40 0h20v20h-20z" class="B"/><path d="M400 660h20v20h-20zm80 0h20v20h-20z" class="B"/><path d="M500 660h20v20h-20z" class="B"/><path d="M520 660h20v20h-20z" class="B"/><path d="M540 660h20v20h-20zm40 0h20v20h-20z" class="B"/><path d="M600 660h20v20h-20z" class="B"/><path d="M620 660h20v20h-20zm40 0h20v20h-20z" class="B"/><path d="M680 660h20v20h-20z" class="B"/><path d="M700 660h20v20h-20zm-460 20h20v20h-20z" class="B"/><path d="M260 680h20v20h-20z" class="B"/><path d="M280 680h20v20h-20zm140 0h20v20h-20z" class="B"/><path d="M440 680h20v20h-20z" class="B"/><path d="M460 680h20v20h-20zm80 0h20v20h-20z" class="B"/><path d="M560 680h20v20h-20z" class="B"/><path d="M580 680h20v20h-20z" class="B"/><path d="M600 680h20v20h-20z" class="B"/><path d="M620 680h20v20h-20zm-360 20h20v20h-20zm40 0h20v20h-20z" class="B"/><path d="M320 700h20v20h-20zm40 0h20v20h-20zm40 0h20v20h-20z" class="B"/><path d="M420 700h20v20h-20z" class="B"/><path d="M440 700h20v20h-20z" class="B"/><path d="M460 700h20v20h-20z" class="B"/><path d="M480 700h20v20h-20z" class="B"/><path d="M500 700h20v20h-20z" class="B"/><path d="M520 700h20v20h-20z" class="B"/><path d="M540 700h20v20h-20z" class="B"/><path d="M560 700h20v20h-20z" class="B"/><path d="M580 700h20v20h-20zm60 0h20v20h-20z" class="B"/><path d="M660 700h20v20h-20zm40 0h20v20h-20z" class="B"/><path d="M720 700h20v20h-20zm-480 20h20v20h-20zm60 0h20v20h-20zm120 0h20v20h-20zm40 0h20v20h-20zm60 0h20v20h-20zm80 0h20v20h-20zm80 0h20v20h-20z" class="B"/><path d="M700 720h20v20h-20z" class="B"/><g class="C"><use href="#C" class="B"/><path d="M600 80h140v140H600zm20 20h100v100H620z" class="B"/></g><path d="M120 120h60v60h-60zm520 0h60v60h-60z" class="B"/><use href="#C" y="520" class="B C"/><path d="M120 640h60v60h-60z" class="B"/></svg></g><defs ><path id="B" d="M80 240h20v20H80z"/><path id="C" d="M80 80h140v140H80zm20 20h100v100H100z"/></defs></svg>